<?xml version="1.0" encoding="UTF-8"?>
<svg id="Capa_1" data-name="Capa 1" xmlns="http://www.w3.org/2000/svg" xmlns:xlink="http://www.w3.org/1999/xlink" viewBox="0 0 866.7 198">
  <defs>
    <style>
      .cls-1 {
        clip-path: url(#clippath-6);
      }

      .cls-2 {
        clip-path: url(#clippath-7);
      }

      .cls-3 {
        clip-path: url(#clippath-4);
      }

      .cls-4 {
        fill: #007689;
      }

      .cls-5 {
        fill: none;
      }

      .cls-6 {
        clip-path: url(#clippath-1);
      }

      .cls-7 {
        clip-path: url(#clippath-5);
      }

      .cls-8 {
        clip-path: url(#clippath-8);
      }

      .cls-9 {
        fill: #021d30;
      }

      .cls-10 {
        clip-path: url(#clippath-3);
      }

      .cls-11 {
        clip-path: url(#clippath-2);
      }

      .cls-12 {
        fill: #00abd1;
      }

      .cls-13 {
        clip-path: url(#clippath);
      }
    </style>
    <clipPath id="clippath">
      <rect class="cls-5" x="-424.3" y="-452" width="1366" height="768"/>
    </clipPath>
    <clipPath id="clippath-1">
      <rect class="cls-5" x="-424.3" y="-452" width="1366" height="768"/>
    </clipPath>
    <clipPath id="clippath-2">
      <rect class="cls-5" x="-424.3" y="-452" width="1366" height="768"/>
    </clipPath>
    <clipPath id="clippath-3">
      <rect class="cls-5" x="-424.3" y="-452" width="1366" height="768"/>
    </clipPath>
    <clipPath id="clippath-4">
      <rect class="cls-5" x="-424.3" y="-452" width="1366" height="768"/>
    </clipPath>
    <clipPath id="clippath-5">
      <rect class="cls-5" x="-424.3" y="-452" width="1366" height="768"/>
    </clipPath>
    <clipPath id="clippath-6">
      <rect class="cls-5" x="-424.3" y="-452" width="1366" height="768"/>
    </clipPath>
    <clipPath id="clippath-7">
      <rect class="cls-5" x="-424.3" y="-452" width="1366" height="768"/>
    </clipPath>
    <clipPath id="clippath-8">
      <rect class="cls-5" x="-424.3" y="-332" width="1366" height="768"/>
    </clipPath>
  </defs>
  <g class="cls-13">
    <path class="cls-9" d="M57.3,52.7c6-3.3,12.9-5,20.5-5,11.7,0,21.7,4.4,29.7,13l1,1.1,15.9-15-.9-1.1c-5.5-6.4-12.3-11.4-20.3-14.7-7.8-3.3-16.7-5-26.3-5-11.8,0-22.7,2.6-32.2,7.8-9.6,5.2-17.3,12.5-22.8,21.7-5.5,9.2-8.3,19.7-8.3,31.2s2.8,22,8.2,31.2,13.1,16.5,22.6,21.7c9.6,5.2,20.4,7.8,32.2,7.8,9.6,0,18.5-1.7,26.5-5.1,8-3.4,14.9-8.3,20.4-14.7l.9-1.1-15.9-15.2-1,1.1c-8,8.8-18,13.2-29.7,13.2-7.6,0-14.5-1.7-20.5-5s-10.7-8-14.1-13.9c-3.4-5.9-5.1-12.7-5.1-20.2s1.7-14.3,5.1-20.2c3.4-5.6,8.1-10.3,14.1-13.6"/>
  </g>
  <g class="cls-6">
    <path class="cls-9" d="M232.8,33.8h0c-9.6-5.2-20.5-7.8-32.5-7.8s-22.9,2.6-32.5,7.8c-9.6,5.2-17.3,12.5-22.8,21.8-5.5,9.2-8.3,19.7-8.3,31.1s2.8,21.9,8.3,31.1c5.5,9.3,13.2,16.6,22.8,21.8s20.5,7.8,32.5,7.8,22.9-2.6,32.5-7.8,17.3-12.5,22.8-21.7,8.3-19.7,8.3-31.2-2.8-22-8.3-31.2c-5.5-9.2-13.2-16.5-22.8-21.7M220.3,120.8c-5.9,3.3-12.6,5-20,5s-14.1-1.7-20-5-10.6-8-13.9-13.9c-3.4-5.9-5.1-12.7-5.1-20.1s1.7-14.2,5.1-20.1c3.4-5.9,8.1-10.6,13.9-13.9,5.9-3.3,12.6-5,20-5s14.1,1.7,20,5,10.6,8,13.9,13.9c3.4,6,5.1,12.7,5.1,20.1s-1.7,14.2-5.1,20.1c-3.3,5.9-8,10.6-13.9,13.9"/>
  </g>
  <g class="cls-11">
    <path class="cls-9" d="M368.5,93h0c-4-4.5-9-8-14.6-10.2-5.5-2.2-12.7-4.3-21.3-6.2-6.2-1.5-11.2-2.9-14.7-4.1-3.4-1.1-6.3-2.7-8.5-4.7-2.1-1.8-3-4.1-3-7,0-4.3,1.8-7.6,5.5-10.2,3.9-2.7,9.9-4,18-4,5,0,10.2.8,15.6,2.3s10.6,3.7,15.5,6.6l1.5.9,7.8-19.3-1-.7c-5.1-3.4-11.1-6-18.1-7.8-6.9-1.8-14-2.7-21.1-2.7-10.3,0-19.1,1.6-26.2,4.7-7.2,3.2-12.7,7.5-16.3,13-3.6,5.4-5.4,11.6-5.4,18.2,0,7.9,2.1,14.3,6.2,19,4,4.6,8.9,8,14.6,10.2,5.5,2.1,12.7,4.2,21.5,6.3,6.2,1.5,11.2,2.9,14.7,4.1,3.4,1.1,6.3,2.7,8.5,4.7,2.1,1.9,3.1,4.2,3.1,7.1,0,4-1.9,7.2-5.7,9.7-4,2.6-10.2,3.9-18.4,3.9-6.7,0-13.5-1.2-20.2-3.5s-12.4-5.3-16.9-8.9l-1.5-1.2-8.6,19.3.8.7c5,4.3,11.8,7.8,20.2,10.3,8.4,2.6,17.2,3.9,26.2,3.9,10.3,0,19.1-1.6,26.3-4.7,7.3-3.2,12.8-7.5,16.4-12.9,3.6-5.4,5.4-11.5,5.4-18.1-.1-7.7-2.2-14-6.3-18.7"/>
  </g>
  <g class="cls-10">
    <polygon class="cls-12" points="382.3 48.7 420.6 48.7 420.6 145.9 444.9 145.9 444.9 48.7 483.1 48.7 483.1 27.6 382.3 27.6 382.3 48.7"/>
  </g>
  <g class="cls-3">
    <polygon class="cls-12" points="526.4 96.1 579.2 96.1 579.2 75.6 551.9 75.6 551.9 75.6 502.1 75.6 502.1 145.9 591.5 145.9 591.5 125 526.4 125 526.4 96.1"/>
  </g>
  <g class="cls-7">
    <path class="cls-12" d="M653.2,52.7c6-3.3,12.9-5,20.5-5,11.7,0,21.7,4.4,29.7,13l1,1.1,15.9-15-.9-1.1c-5.5-6.4-12.3-11.4-20.3-14.7-7.9-3.4-16.8-5.1-26.4-5.1-11.8,0-22.7,2.6-32.2,7.8-9.6,5.2-17.2,12.5-22.7,21.7-5.5,9.2-8.3,19.7-8.3,31.2s2.8,22,8.2,31.2,13.1,16.5,22.6,21.7c9.6,5.2,20.4,7.8,32.2,7.8,9.6,0,18.5-1.7,26.5-5.1,8-3.4,14.9-8.3,20.4-14.7l.9-1.1-15.9-15.2-1,1.1c-8,8.8-18,13.2-29.7,13.2-7.6,0-14.5-1.7-20.5-5s-10.7-8-14.1-13.9c-3.4-5.9-5.1-12.7-5.1-20.2s1.7-14.3,5.1-20.2c3.4-5.5,8.1-10.2,14.1-13.5"/>
  </g>
  <g class="cls-1">
    <polygon class="cls-12" points="824.3 27.6 824.3 75.3 767.6 75.3 767.6 27.6 743.3 27.6 743.3 145.9 767.6 145.9 767.6 96.5 824.3 96.5 824.3 145.9 848.7 145.9 848.7 27.6 824.3 27.6"/>
  </g>
  <g class="cls-2">
    <rect class="cls-4" x="501.6" y="29.2" width="89.7" height="20.8"/>
  </g>
  <g class="cls-8">
    <rect class="cls-4" x="501.6" y="170" width="89.7" height="20.8"/>
  </g>
</svg>